<svg xmlns="http://www.w3.org/2000/svg" width="132.348" height="20.06" viewBox="0 0 132.348 20.06"><g transform="translate(-322 -493.59)"><path d="M1.465-18.6V-6.475h.9V-16.2L11.22-6.067V-18.15h-.9v9.69Zm23.1,6.291A5.188,5.188,0,0,1,22.985-8.5a5.188,5.188,0,0,1-3.807,1.577A5.188,5.188,0,0,1,15.37-8.5a5.188,5.188,0,0,1-1.577-3.807,5.188,5.188,0,0,1,1.577-3.807,5.188,5.188,0,0,1,3.807-1.577,5.188,5.188,0,0,1,3.807,1.577A5.188,5.188,0,0,1,24.561-12.309Zm0,5.833h.9v-5.833a6.032,6.032,0,0,0-1.846-4.436,6.032,6.032,0,0,0-4.436-1.846,6.059,6.059,0,0,0-4.444,1.846,6.045,6.045,0,0,0-1.838,4.436,6.072,6.072,0,0,0,1.838,4.444,6.072,6.072,0,0,0,4.444,1.838,6.158,6.158,0,0,0,3.137-.842A6.318,6.318,0,0,0,24.561-9.09ZM37.454-18.15,32.1-8,26.751-18.15h-1L32.1-6.051l6.356-12.1Zm3.333,5.842a5.188,5.188,0,0,1,1.577-3.807,5.188,5.188,0,0,1,3.807-1.577,5.188,5.188,0,0,1,3.807,1.577,5.188,5.188,0,0,1,1.577,3.807A5.188,5.188,0,0,1,49.978-8.5a5.188,5.188,0,0,1-3.807,1.577A5.188,5.188,0,0,1,42.364-8.5,5.188,5.188,0,0,1,40.787-12.309Zm0-9.1h-.9v9.1a6.072,6.072,0,0,0,1.838,4.444,6.072,6.072,0,0,0,4.444,1.838,6.045,6.045,0,0,0,4.436-1.838,6.059,6.059,0,0,0,1.846-4.444,6.032,6.032,0,0,0-1.846-4.436,6.032,6.032,0,0,0-4.436-1.846,6.113,6.113,0,0,0-3.137.85,6.167,6.167,0,0,0-2.247,2.214Zm24.641,9.1A5.188,5.188,0,0,1,63.851-8.5a5.188,5.188,0,0,1-3.807,1.577A5.188,5.188,0,0,1,56.237-8.5a5.188,5.188,0,0,1-1.577-3.807,5.188,5.188,0,0,1,1.577-3.807,5.188,5.188,0,0,1,3.807-1.577,5.188,5.188,0,0,1,3.807,1.577A5.188,5.188,0,0,1,65.428-12.309Zm0,5.833h.9v-5.833a6.032,6.032,0,0,0-1.846-4.436,6.032,6.032,0,0,0-4.436-1.846A6.059,6.059,0,0,0,55.6-16.745a6.045,6.045,0,0,0-1.838,4.436A6.072,6.072,0,0,0,55.6-7.864a6.072,6.072,0,0,0,4.444,1.838,6.158,6.158,0,0,0,3.137-.842A6.318,6.318,0,0,0,65.428-9.09ZM73.745-18.6a5.178,5.178,0,0,0-3.8,1.577,5.178,5.178,0,0,0-1.577,3.8v6.74h.9v-6.74a4.321,4.321,0,0,1,1.315-3.17,4.294,4.294,0,0,1,3.162-1.315,4.437,4.437,0,0,1,1.381.221v-.931A5.367,5.367,0,0,0,73.745-18.6Z" transform="translate(320.535 515)"/><path d="M1.465-16.92V-4.549h9.369V-5.5H2.374V-16.92Zm16.347.5a5.136,5.136,0,0,0-3.853,1.67,5.624,5.624,0,0,0-1.6,4.031,5.624,5.624,0,0,0,1.6,4.031,5.136,5.136,0,0,0,3.853,1.67,5.136,5.136,0,0,0,3.853-1.67,5.624,5.624,0,0,0,1.6-4.031,5.624,5.624,0,0,0-1.6-4.031A5.136,5.136,0,0,0,17.812-16.419Zm0,12.354a6,6,0,0,1-4.5-1.955,6.553,6.553,0,0,1-1.86-4.7,6.553,6.553,0,0,1,1.86-4.7,6,6,0,0,1,4.5-1.955,5.973,5.973,0,0,1,4.49,1.955,6.538,6.538,0,0,1,1.869,4.7A6.538,6.538,0,0,1,22.3-6.02,5.973,5.973,0,0,1,17.812-4.065ZM28-6.695a5.643,5.643,0,0,1-1.6-4.031A5.624,5.624,0,0,1,28-14.758a5.124,5.124,0,0,1,3.853-1.678,5.128,5.128,0,0,1,3.8,1.626,5.628,5.628,0,0,1,1.637,3.928v.3a5.628,5.628,0,0,1-1.637,3.928,5.128,5.128,0,0,1-3.8,1.626A5.136,5.136,0,0,1,28-6.695Zm10.2-4.239a6.251,6.251,0,0,0-1.885-4.576,6.094,6.094,0,0,0-4.465-1.869,6.012,6.012,0,0,0-4.5,1.946,6.583,6.583,0,0,0-1.86,4.706,6.553,6.553,0,0,0,1.86,4.7,6,6,0,0,0,4.5,1.955,5.938,5.938,0,0,0,3.167-.9,6.406,6.406,0,0,0,2.274-2.336v.9a5.572,5.572,0,0,1-1.6,3.945A5.162,5.162,0,0,1,31.844-.812a5.162,5.162,0,0,1-3.853-1.652,7.033,7.033,0,0,1-.628-.787l-.719.588a6.29,6.29,0,0,0,.7.856,5.982,5.982,0,0,0,4.5,1.955,5.973,5.973,0,0,0,4.49-1.955A6.489,6.489,0,0,0,38.2-6.375Zm7.682-5.485a5.136,5.136,0,0,0-3.853,1.67,5.624,5.624,0,0,0-1.6,4.031,5.624,5.624,0,0,0,1.6,4.031,5.136,5.136,0,0,0,3.853,1.67,5.136,5.136,0,0,0,3.853-1.67,5.623,5.623,0,0,0,1.6-4.031,5.623,5.623,0,0,0-1.6-4.031A5.136,5.136,0,0,0,45.885-16.419Zm0,12.354a6,6,0,0,1-4.5-1.955,6.553,6.553,0,0,1-1.86-4.7,6.553,6.553,0,0,1,1.86-4.7,6,6,0,0,1,4.5-1.955,5.973,5.973,0,0,1,4.49,1.955,6.538,6.538,0,0,1,1.869,4.7,6.538,6.538,0,0,1-1.869,4.7A5.973,5.973,0,0,1,45.885-4.065Z" transform="translate(402.105 513.502)" fill="#49a6e9"/></g></svg>